<svg width="400" height="400" viewBox="0 0 400 400" xmlns="http://www.w3.org/2000/svg">
  <!-- Background Circle -->
  <circle cx="200" cy="200" r="180" fill="#0a0a0a" stroke="#00D9FF" stroke-width="2"/>

  <!-- Signal Tower Base -->
  <rect x="180" y="260" width="40" height="80" fill="#00D9FF" rx="4"/>

  <!-- Signal Tower Middle -->
  <rect x="185" y="240" width="30" height="25" fill="#00D9FF" rx="3"/>

  <!-- Signal Tower Top -->
  <rect x="190" y="220" width="20" height="25" fill="#00D9FF" rx="2"/>

  <!-- Antenna Point -->
  <path d="M 200 220 L 195 200 L 205 200 Z" fill="#00D9FF"/>
  <rect x="198" y="190" width="4" height="15" fill="#00D9FF"/>

  <!-- Signal Waves (Left) -->
  <path d="M 160 160 Q 140 180 140 200 Q 140 220 160 240"
        stroke="#00D9FF" stroke-width="3" fill="none" opacity="0.7"/>
  <path d="M 140 140 Q 110 170 110 200 Q 110 230 140 260"
        stroke="#00D9FF" stroke-width="3" fill="none" opacity="0.5"/>
  <path d="M 120 120 Q 80 160 80 200 Q 80 240 120 280"
        stroke="#00D9FF" stroke-width="3" fill="none" opacity="0.3"/>

  <!-- Signal Waves (Right) -->
  <path d="M 240 160 Q 260 180 260 200 Q 260 220 240 240"
        stroke="#00D9FF" stroke-width="3" fill="none" opacity="0.7"/>
  <path d="M 260 140 Q 290 170 290 200 Q 290 230 260 260"
        stroke="#00D9FF" stroke-width="3" fill="none" opacity="0.5"/>
  <path d="M 280 120 Q 320 160 320 200 Q 320 240 280 280"
        stroke="#00D9FF" stroke-width="3" fill="none" opacity="0.3"/>

  <!-- Data Nodes -->
  <circle cx="140" cy="200" r="6" fill="#00D9FF" opacity="0.8">
    <animate attributeName="opacity" values="0.8;1;0.8" dur="2s" repeatCount="indefinite"/>
  </circle>
  <circle cx="110" cy="200" r="6" fill="#00D9FF" opacity="0.6">
    <animate attributeName="opacity" values="0.6;1;0.6" dur="2.5s" repeatCount="indefinite"/>
  </circle>
  <circle cx="80" cy="200" r="6" fill="#00D9FF" opacity="0.4">
    <animate attributeName="opacity" values="0.4;1;0.4" dur="3s" repeatCount="indefinite"/>
  </circle>

  <circle cx="260" cy="200" r="6" fill="#00D9FF" opacity="0.8">
    <animate attributeName="opacity" values="0.8;1;0.8" dur="2s" repeatCount="indefinite"/>
  </circle>
  <circle cx="290" cy="200" r="6" fill="#00D9FF" opacity="0.6">
    <animate attributeName="opacity" values="0.6;1;0.6" dur="2.5s" repeatCount="indefinite"/>
  </circle>
  <circle cx="320" cy="200" r="6" fill="#00D9FF" opacity="0.4">
    <animate attributeName="opacity" values="0.4;1;0.4" dur="3s" repeatCount="indefinite"/>
  </circle>

  <!-- Metrics Grid (Background Pattern) -->
  <g opacity="0.15">
    <line x1="60" y1="100" x2="340" y2="100" stroke="#00D9FF" stroke-width="1"/>
    <line x1="60" y1="130" x2="340" y2="130" stroke="#00D9FF" stroke-width="1"/>
    <line x1="60" y1="160" x2="340" y2="160" stroke="#00D9FF" stroke-width="1"/>
    <line x1="60" y1="190" x2="340" y2="190" stroke="#00D9FF" stroke-width="1"/>
  </g>

  <!-- Shield (Privacy Symbol) -->
  <path d="M 200 80 L 180 90 L 180 120 Q 180 140 200 150 Q 220 140 220 120 L 220 90 Z"
        fill="none" stroke="#00D9FF" stroke-width="2.5" opacity="0.6"/>
  <path d="M 195 110 L 198 120 L 205 115"
        stroke="#00D9FF" stroke-width="2" fill="none" stroke-linecap="round" opacity="0.8"/>
</svg>
